<svg xmlns="http://www.w3.org/2000/svg" version="1.1" xmlns:xlink="http://www.w3.org/1999/xlink" xmlns:svgjs="http://svgjs.com/svgjs" width="1440" height="1440" preserveAspectRatio="none" viewBox="0 0 1440 1440"><g mask="url(&quot;#SvgjsMask1084&quot;)" fill="none"><path d="M63.05 160.71L94.23 178.71L94.23 214.71L63.05 232.71L31.87 214.71L31.87 178.71zM63.05 376.71L94.23 394.71L94.23 430.71L63.05 448.71L31.87 430.71L31.87 394.71zM63.05 484.71L94.23 502.71L94.23 538.71L63.05 556.71L31.87 538.71L31.87 502.71zM63.05 592.71L94.23 610.71L94.23 646.71L63.05 664.71L31.87 646.71L31.87 610.71zM31.87 970.71L63.05 988.71L63.05 1024.71L31.87 1042.71L0.69 1024.71L0.69 988.71zM31.87 1186.71L63.05 1204.71L63.05 1240.71L31.87 1258.71L0.69 1240.71L0.69 1204.71zM63.05 1240.71L94.23 1258.71L94.23 1294.71L63.05 1312.71L31.87 1294.71L31.87 1258.71zM31.87 1294.71L63.05 1312.71L63.05 1348.71L31.87 1366.71L0.69 1348.71L0.69 1312.71zM31.87 1402.71L63.05 1420.71L63.05 1456.71L31.87 1474.71L0.69 1456.71L0.69 1420.71zM125.4 268.71L156.58 286.71L156.58 322.71L125.4 340.71L94.23 322.71L94.23 286.71zM125.4 376.71L156.58 394.71L156.58 430.71L125.4 448.71L94.23 430.71L94.23 394.71zM94.23 538.71L125.4 556.71L125.4 592.71L94.23 610.71L63.05 592.71L63.05 556.71zM125.4 592.71L156.58 610.71L156.58 646.71L125.4 664.71L94.23 646.71L94.23 610.71zM94.23 754.71L125.4 772.71L125.4 808.71L94.23 826.71L63.05 808.71L63.05 772.71zM125.4 808.71L156.58 826.71L156.58 862.71L125.4 880.71L94.23 862.71L94.23 826.71zM94.23 1186.71L125.4 1204.71L125.4 1240.71L94.23 1258.71L63.05 1240.71L63.05 1204.71zM125.4 1348.71L156.58 1366.71L156.58 1402.71L125.4 1420.71L94.23 1402.71L94.23 1366.71zM125.4 1456.71L156.58 1474.71L156.58 1510.71L125.4 1528.71L94.23 1510.71L94.23 1474.71zM187.76 52.71L218.94 70.71L218.94 106.71L187.76 124.71L156.58 106.71L156.58 70.71zM156.58 106.71L187.76 124.71L187.76 160.71L156.58 178.71L125.4 160.71L125.4 124.71zM156.58 322.71L187.76 340.71L187.76 376.71L156.58 394.71L125.4 376.71L125.4 340.71zM187.76 592.71L218.94 610.71L218.94 646.71L187.76 664.71L156.58 646.71L156.58 610.71zM156.58 1186.71L187.76 1204.71L187.76 1240.71L156.58 1258.71L125.4 1240.71L125.4 1204.71zM156.58 1402.71L187.76 1420.71L187.76 1456.71L156.58 1474.71L125.4 1456.71L125.4 1420.71zM187.76 1456.71L218.94 1474.71L218.94 1510.71L187.76 1528.71L156.58 1510.71L156.58 1474.71zM218.94 970.71L250.11 988.71L250.11 1024.71L218.94 1042.71L187.76 1024.71L187.76 988.71zM218.94 1078.71L250.11 1096.71L250.11 1132.71L218.94 1150.71L187.76 1132.71L187.76 1096.71zM250.11 1456.71L281.29 1474.71L281.29 1510.71L250.11 1528.71L218.94 1510.71L218.94 1474.71zM312.47 160.71L343.65 178.71L343.65 214.71L312.47 232.71L281.29 214.71L281.29 178.71zM281.29 214.71L312.47 232.71L312.47 268.71L281.29 286.71L250.11 268.71L250.11 232.71zM312.47 268.71L343.65 286.71L343.65 322.71L312.47 340.71L281.29 322.71L281.29 286.71zM281.29 430.71L312.47 448.71L312.47 484.71L281.29 502.71L250.11 484.71L250.11 448.71zM312.47 484.71L343.65 502.71L343.65 538.71L312.47 556.71L281.29 538.71L281.29 502.71zM281.29 646.71L312.47 664.71L312.47 700.71L281.29 718.71L250.11 700.71L250.11 664.71zM281.29 754.71L312.47 772.71L312.47 808.71L281.29 826.71L250.11 808.71L250.11 772.71zM281.29 862.71L312.47 880.71L312.47 916.71L281.29 934.71L250.11 916.71L250.11 880.71zM312.47 1132.71L343.65 1150.71L343.65 1186.71L312.47 1204.71L281.29 1186.71L281.29 1150.71zM312.47 1240.71L343.65 1258.71L343.65 1294.71L312.47 1312.71L281.29 1294.71L281.29 1258.71zM374.83 376.71L406 394.71L406 430.71L374.83 448.71L343.65 430.71L343.65 394.71zM343.65 538.71L374.83 556.71L374.83 592.71L343.65 610.71L312.47 592.71L312.47 556.71zM343.65 862.71L374.83 880.71L374.83 916.71L343.65 934.71L312.47 916.71L312.47 880.71zM374.83 916.71L406 934.71L406 970.71L374.83 988.71L343.65 970.71L343.65 934.71zM343.65 970.71L374.83 988.71L374.83 1024.71L343.65 1042.71L312.47 1024.71L312.47 988.71zM343.65 1294.71L374.83 1312.71L374.83 1348.71L343.65 1366.71L312.47 1348.71L312.47 1312.71zM343.65 1402.71L374.83 1420.71L374.83 1456.71L343.65 1474.71L312.47 1456.71L312.47 1420.71zM437.18 592.71L468.36 610.71L468.36 646.71L437.18 664.71L406 646.71L406 610.71zM437.18 700.71L468.36 718.71L468.36 754.71L437.18 772.71L406 754.71L406 718.71zM406 754.71L437.18 772.71L437.18 808.71L406 826.71L374.83 808.71L374.83 772.71zM406 1402.71L437.18 1420.71L437.18 1456.71L406 1474.71L374.83 1456.71L374.83 1420.71zM437.18 1456.71L468.36 1474.71L468.36 1510.71L437.18 1528.71L406 1510.71L406 1474.71zM499.54 160.71L530.71 178.71L530.71 214.71L499.54 232.71L468.36 214.71L468.36 178.71zM468.36 214.71L499.54 232.71L499.54 268.71L468.36 286.71L437.18 268.71L437.18 232.71zM468.36 538.71L499.54 556.71L499.54 592.71L468.36 610.71L437.18 592.71L437.18 556.71zM499.54 592.71L530.71 610.71L530.71 646.71L499.54 664.71L468.36 646.71L468.36 610.71zM499.54 700.71L530.71 718.71L530.71 754.71L499.54 772.71L468.36 754.71L468.36 718.71zM499.54 1240.71L530.71 1258.71L530.71 1294.71L499.54 1312.71L468.36 1294.71L468.36 1258.71zM530.71 106.71L561.89 124.71L561.89 160.71L530.71 178.71L499.54 160.71L499.54 124.71zM561.89 268.71L593.07 286.71L593.07 322.71L561.89 340.71L530.71 322.71L530.71 286.71zM530.71 538.71L561.89 556.71L561.89 592.71L530.71 610.71L499.54 592.71L499.54 556.71zM530.71 970.71L561.89 988.71L561.89 1024.71L530.71 1042.71L499.54 1024.71L499.54 988.71zM530.71 1078.71L561.89 1096.71L561.89 1132.71L530.71 1150.71L499.54 1132.71L499.54 1096.71zM561.89 1240.71L593.07 1258.71L593.07 1294.71L561.89 1312.71L530.71 1294.71L530.71 1258.71zM530.71 1402.71L561.89 1420.71L561.89 1456.71L530.71 1474.71L499.54 1456.71L499.54 1420.71zM593.07 106.71L624.25 124.71L624.25 160.71L593.07 178.71L561.89 160.71L561.89 124.71zM624.25 160.71L655.43 178.71L655.43 214.71L624.25 232.71L593.07 214.71L593.07 178.71zM593.07 214.71L624.25 232.71L624.25 268.71L593.07 286.71L561.89 268.71L561.89 232.71zM624.25 268.71L655.43 286.71L655.43 322.71L624.25 340.71L593.07 322.71L593.07 286.71zM593.07 322.71L624.25 340.71L624.25 376.71L593.07 394.71L561.89 376.71L561.89 340.71zM593.07 646.71L624.25 664.71L624.25 700.71L593.07 718.71L561.89 700.71L561.89 664.71zM593.07 754.71L624.25 772.71L624.25 808.71L593.07 826.71L561.89 808.71L561.89 772.71zM593.07 1078.71L624.25 1096.71L624.25 1132.71L593.07 1150.71L561.89 1132.71L561.89 1096.71zM624.25 1240.71L655.43 1258.71L655.43 1294.71L624.25 1312.71L593.07 1294.71L593.07 1258.71zM655.43 -1.29L686.6 16.71L686.6 52.71L655.43 70.71L624.25 52.71L624.25 16.71zM655.43 106.71L686.6 124.71L686.6 160.71L655.43 178.71L624.25 160.71L624.25 124.71zM686.6 268.71L717.78 286.71L717.78 322.71L686.6 340.71L655.43 322.71L655.43 286.71zM655.43 1186.71L686.6 1204.71L686.6 1240.71L655.43 1258.71L624.25 1240.71L624.25 1204.71zM748.96 52.71L780.14 70.71L780.14 106.71L748.96 124.71L717.78 106.71L717.78 70.71zM717.78 646.71L748.96 664.71L748.96 700.71L717.78 718.71L686.6 700.71L686.6 664.71zM748.96 700.71L780.14 718.71L780.14 754.71L748.96 772.71L717.78 754.71L717.78 718.71zM748.96 808.71L780.14 826.71L780.14 862.71L748.96 880.71L717.78 862.71L717.78 826.71zM717.78 862.71L748.96 880.71L748.96 916.71L717.78 934.71L686.6 916.71L686.6 880.71zM717.78 1078.71L748.96 1096.71L748.96 1132.71L717.78 1150.71L686.6 1132.71L686.6 1096.71zM748.96 1240.71L780.14 1258.71L780.14 1294.71L748.96 1312.71L717.78 1294.71L717.78 1258.71zM748.96 1456.71L780.14 1474.71L780.14 1510.71L748.96 1528.71L717.78 1510.71L717.78 1474.71zM780.14 -1.29L811.32 16.71L811.32 52.71L780.14 70.71L748.96 52.71L748.96 16.71zM780.14 106.71L811.32 124.71L811.32 160.71L780.14 178.71L748.96 160.71L748.96 124.71zM811.32 160.71L842.49 178.71L842.49 214.71L811.32 232.71L780.14 214.71L780.14 178.71zM811.32 268.71L842.49 286.71L842.49 322.71L811.32 340.71L780.14 322.71L780.14 286.71zM811.32 592.71L842.49 610.71L842.49 646.71L811.32 664.71L780.14 646.71L780.14 610.71zM780.14 646.71L811.32 664.71L811.32 700.71L780.14 718.71L748.96 700.71L748.96 664.71zM811.32 1132.71L842.49 1150.71L842.49 1186.71L811.32 1204.71L780.14 1186.71L780.14 1150.71zM842.49 214.71L873.67 232.71L873.67 268.71L842.49 286.71L811.31 268.71L811.31 232.71zM873.67 268.71L904.85 286.71L904.85 322.71L873.67 340.71L842.49 322.71L842.49 286.71zM842.49 538.71L873.67 556.71L873.67 592.71L842.49 610.71L811.31 592.71L811.31 556.71zM873.67 700.71L904.85 718.71L904.85 754.71L873.67 772.71L842.49 754.71L842.49 718.71zM842.49 1078.71L873.67 1096.71L873.67 1132.71L842.49 1150.71L811.31 1132.71L811.31 1096.71zM842.49 1294.71L873.67 1312.71L873.67 1348.71L842.49 1366.71L811.31 1348.71L811.31 1312.71zM873.67 1456.71L904.85 1474.71L904.85 1510.71L873.67 1528.71L842.49 1510.71L842.49 1474.71zM904.85 -1.29L936.03 16.71L936.03 52.71L904.85 70.71L873.67 52.71L873.67 16.71zM904.85 106.71L936.03 124.71L936.03 160.71L904.85 178.71L873.67 160.71L873.67 124.71zM904.85 538.71L936.03 556.71L936.03 592.71L904.85 610.71L873.67 592.71L873.67 556.71zM936.03 592.71L967.2 610.71L967.2 646.71L936.03 664.71L904.85 646.71L904.85 610.71zM936.03 700.71L967.2 718.71L967.2 754.71L936.03 772.71L904.85 754.71L904.85 718.71zM936.03 916.71L967.2 934.71L967.2 970.71L936.03 988.71L904.85 970.71L904.85 934.71zM936.03 1132.71L967.2 1150.71L967.2 1186.71L936.03 1204.71L904.85 1186.71L904.85 1150.71zM904.85 1186.71L936.03 1204.71L936.03 1240.71L904.85 1258.71L873.67 1240.71L873.67 1204.71zM967.2 -1.29L998.38 16.71L998.38 52.71L967.2 70.71L936.03 52.71L936.03 16.71zM998.38 52.71L1029.56 70.71L1029.56 106.71L998.38 124.71L967.2 106.71L967.2 70.71zM998.38 376.71L1029.56 394.71L1029.56 430.71L998.38 448.71L967.2 430.71L967.2 394.71zM967.2 430.71L998.38 448.71L998.38 484.71L967.2 502.71L936.03 484.71L936.03 448.71zM967.2 538.71L998.38 556.71L998.38 592.71L967.2 610.71L936.03 592.71L936.03 556.71zM998.38 700.71L1029.56 718.71L1029.56 754.71L998.38 772.71L967.2 754.71L967.2 718.71zM998.38 808.71L1029.56 826.71L1029.56 862.71L998.38 880.71L967.2 862.71L967.2 826.71zM998.38 916.71L1029.56 934.71L1029.56 970.71L998.38 988.71L967.2 970.71L967.2 934.71zM967.2 970.71L998.38 988.71L998.38 1024.71L967.2 1042.71L936.03 1024.71L936.03 988.71zM967.2 1078.71L998.38 1096.71L998.38 1132.71L967.2 1150.71L936.03 1132.71L936.03 1096.71zM967.2 1402.71L998.38 1420.71L998.38 1456.71L967.2 1474.71L936.03 1456.71L936.03 1420.71zM1060.74 484.71L1091.92 502.71L1091.92 538.71L1060.74 556.71L1029.56 538.71L1029.56 502.71zM1060.74 916.71L1091.92 934.71L1091.92 970.71L1060.74 988.71L1029.56 970.71L1029.56 934.71zM1060.74 1024.71L1091.92 1042.71L1091.92 1078.71L1060.74 1096.71L1029.56 1078.71L1029.56 1042.71zM1060.74 1132.71L1091.92 1150.71L1091.92 1186.71L1060.74 1204.71L1029.56 1186.71L1029.56 1150.71zM1060.74 1456.71L1091.92 1474.71L1091.92 1510.71L1060.74 1528.71L1029.56 1510.71L1029.56 1474.71zM1123.09 52.71L1154.27 70.71L1154.27 106.71L1123.09 124.71L1091.92 106.71L1091.92 70.71zM1123.09 484.71L1154.27 502.71L1154.27 538.71L1123.09 556.71L1091.92 538.71L1091.92 502.71zM1091.92 1078.71L1123.09 1096.71L1123.09 1132.71L1091.92 1150.71L1060.74 1132.71L1060.74 1096.71zM1123.09 1240.71L1154.27 1258.71L1154.27 1294.71L1123.09 1312.71L1091.92 1294.71L1091.92 1258.71zM1123.09 1456.71L1154.27 1474.71L1154.27 1510.71L1123.09 1528.71L1091.92 1510.71L1091.92 1474.71zM1185.45 376.71L1216.63 394.71L1216.63 430.71L1185.45 448.71L1154.27 430.71L1154.27 394.71zM1185.45 916.71L1216.63 934.71L1216.63 970.71L1185.45 988.71L1154.27 970.71L1154.27 934.71zM1185.45 1024.71L1216.63 1042.71L1216.63 1078.71L1185.45 1096.71L1154.27 1078.71L1154.27 1042.71zM1154.27 1294.71L1185.45 1312.71L1185.45 1348.71L1154.27 1366.71L1123.09 1348.71L1123.09 1312.71zM1216.63 106.71L1247.8 124.71L1247.8 160.71L1216.63 178.71L1185.45 160.71L1185.45 124.71zM1216.63 214.71L1247.8 232.71L1247.8 268.71L1216.63 286.71L1185.45 268.71L1185.45 232.71zM1216.63 538.71L1247.8 556.71L1247.8 592.71L1216.63 610.71L1185.45 592.71L1185.45 556.71zM1216.63 862.71L1247.8 880.71L1247.8 916.71L1216.63 934.71L1185.45 916.71L1185.45 880.71zM1247.8 1348.71L1278.98 1366.71L1278.98 1402.71L1247.8 1420.71L1216.63 1402.71L1216.63 1366.71zM1278.98 -1.29L1310.16 16.71L1310.16 52.71L1278.98 70.71L1247.8 52.71L1247.8 16.71zM1278.98 646.71L1310.16 664.71L1310.16 700.71L1278.98 718.71L1247.8 700.71L1247.8 664.71zM1278.98 754.71L1310.16 772.71L1310.16 808.71L1278.98 826.71L1247.8 808.71L1247.8 772.71zM1310.16 808.71L1341.34 826.71L1341.34 862.71L1310.16 880.71L1278.98 862.71L1278.98 826.71zM1341.34 -1.29L1372.52 16.71L1372.52 52.71L1341.34 70.71L1310.16 52.71L1310.16 16.71zM1372.52 484.71L1403.69 502.71L1403.69 538.71L1372.52 556.71L1341.34 538.71L1341.34 502.71zM1372.52 700.71L1403.69 718.71L1403.69 754.71L1372.52 772.71L1341.34 754.71L1341.34 718.71zM1341.34 862.71L1372.52 880.71L1372.52 916.71L1341.34 934.71L1310.16 916.71L1310.16 880.71zM1372.52 1024.71L1403.69 1042.71L1403.69 1078.71L1372.52 1096.71L1341.34 1078.71L1341.34 1042.71zM1341.34 1186.71L1372.52 1204.71L1372.52 1240.71L1341.34 1258.71L1310.16 1240.71L1310.16 1204.71zM1372.52 1240.71L1403.69 1258.71L1403.69 1294.71L1372.52 1312.71L1341.34 1294.71L1341.34 1258.71zM1341.34 1294.71L1372.52 1312.71L1372.52 1348.71L1341.34 1366.71L1310.16 1348.71L1310.16 1312.71zM1372.52 1456.71L1403.69 1474.71L1403.69 1510.71L1372.52 1528.71L1341.34 1510.71L1341.34 1474.71zM1403.69 106.71L1434.87 124.71L1434.87 160.71L1403.69 178.71L1372.52 160.71L1372.52 124.71zM1403.69 214.71L1434.87 232.71L1434.87 268.71L1403.69 286.71L1372.52 268.71L1372.52 232.71zM1434.87 376.71L1466.05 394.71L1466.05 430.71L1434.87 448.71L1403.69 430.71L1403.69 394.71zM1434.87 916.71L1466.05 934.71L1466.05 970.71L1434.87 988.71L1403.69 970.71L1403.69 934.71zM1403.69 970.71L1434.87 988.71L1434.87 1024.71L1403.69 1042.71L1372.52 1024.71L1372.52 988.71zM1497.23 160.71L1528.4 178.71L1528.4 214.71L1497.23 232.71L1466.05 214.71L1466.05 178.71zM1497.23 268.71L1528.4 286.71L1528.4 322.71L1497.23 340.71L1466.05 322.71L1466.05 286.71zM1497.23 808.71L1528.4 826.71L1528.4 862.71L1497.23 880.71L1466.05 862.71L1466.05 826.71zM1497.23 1240.71L1528.4 1258.71L1528.4 1294.71L1497.23 1312.71L1466.05 1294.71L1466.05 1258.71z" stroke="#03305d" stroke-width="2"></path><path d="M146.91 297.28L219.66 339.28L219.66 423.28L146.91 465.28L74.16 423.28L74.16 339.28zM74.16 675.28L146.91 717.28L146.91 801.28L74.16 843.28L1.41 801.28L1.41 717.28zM146.91 801.28L219.66 843.28L219.66 927.28L146.91 969.28L74.16 927.28L74.16 843.28zM74.16 927.28L146.91 969.28L146.91 1053.28L74.16 1095.28L1.41 1053.28L1.41 969.28zM219.66 -80.72L292.4 -38.72L292.4 45.28L219.66 87.28L146.91 45.28L146.91 -38.72zM292.4 45.28L365.15 87.28L365.15 171.28L292.4 213.28L219.66 171.28L219.66 87.28zM292.4 549.28L365.15 591.28L365.15 675.28L292.4 717.28L219.66 675.28L219.66 591.28zM292.4 1053.28L365.15 1095.28L365.15 1179.28L292.4 1221.28L219.66 1179.28L219.66 1095.28zM219.66 1179.28L292.4 1221.28L292.4 1305.28L219.66 1347.28L146.91 1305.28L146.91 1221.28zM365.15 -80.72L437.9 -38.72L437.9 45.28L365.15 87.28L292.4 45.28L292.4 -38.72zM437.9 45.28L510.65 87.28L510.65 171.28L437.9 213.28L365.15 171.28L365.15 87.28zM437.9 549.28L510.65 591.28L510.65 675.28L437.9 717.28L365.15 675.28L365.15 591.28zM365.15 1179.28L437.9 1221.28L437.9 1305.28L365.15 1347.28L292.4 1305.28L292.4 1221.28zM583.4 45.28L656.15 87.28L656.15 171.28L583.4 213.28L510.65 171.28L510.65 87.28zM510.65 675.28L583.4 717.28L583.4 801.28L510.65 843.28L437.9 801.28L437.9 717.28zM583.4 801.28L656.15 843.28L656.15 927.28L583.4 969.28L510.65 927.28L510.65 843.28zM583.4 1053.28L656.15 1095.28L656.15 1179.28L583.4 1221.28L510.65 1179.28L510.65 1095.28zM510.65 1179.28L583.4 1221.28L583.4 1305.28L510.65 1347.28L437.9 1305.28L437.9 1221.28zM656.15 -80.72L728.89 -38.72L728.89 45.28L656.15 87.28L583.4 45.28L583.4 -38.72zM728.89 45.28L801.64 87.28L801.64 171.28L728.89 213.28L656.15 171.28L656.15 87.28zM728.89 297.28L801.64 339.28L801.64 423.28L728.89 465.28L656.15 423.28L656.15 339.28zM656.15 423.28L728.89 465.28L728.89 549.28L656.15 591.28L583.4 549.28L583.4 465.28zM728.89 549.28L801.64 591.28L801.64 675.28L728.89 717.28L656.15 675.28L656.15 591.28zM656.15 675.28L728.89 717.28L728.89 801.28L656.15 843.28L583.4 801.28L583.4 717.28zM728.89 1053.28L801.64 1095.28L801.64 1179.28L728.89 1221.28L656.15 1179.28L656.15 1095.28zM656.15 1179.28L728.89 1221.28L728.89 1305.28L656.15 1347.28L583.4 1305.28L583.4 1221.28zM728.89 1305.28L801.64 1347.28L801.64 1431.28L728.89 1473.28L656.15 1431.28L656.15 1347.28zM801.64 -80.72L874.39 -38.72L874.39 45.28L801.64 87.28L728.89 45.28L728.89 -38.72zM874.39 45.28L947.14 87.28L947.14 171.28L874.39 213.28L801.64 171.28L801.64 87.28zM874.39 549.28L947.14 591.28L947.14 675.28L874.39 717.28L801.64 675.28L801.64 591.28zM801.64 675.28L874.39 717.28L874.39 801.28L801.64 843.28L728.89 801.28L728.89 717.28zM874.39 801.28L947.14 843.28L947.14 927.28L874.39 969.28L801.64 927.28L801.64 843.28zM1019.89 45.28L1092.63 87.28L1092.63 171.28L1019.89 213.28L947.14 171.28L947.14 87.28zM947.14 171.28L1019.89 213.28L1019.89 297.28L947.14 339.28L874.39 297.28L874.39 213.28zM1019.89 549.28L1092.63 591.28L1092.63 675.28L1019.89 717.28L947.14 675.28L947.14 591.28zM1165.38 45.28L1238.13 87.28L1238.13 171.28L1165.38 213.28L1092.63 171.28L1092.63 87.28zM1092.63 423.28L1165.38 465.28L1165.38 549.28L1092.63 591.28L1019.89 549.28L1019.89 465.28zM1165.38 549.28L1238.13 591.28L1238.13 675.28L1165.38 717.28L1092.63 675.28L1092.63 591.28zM1165.38 801.28L1238.13 843.28L1238.13 927.28L1165.38 969.28L1092.63 927.28L1092.63 843.28zM1092.63 927.28L1165.38 969.28L1165.38 1053.28L1092.63 1095.28L1019.89 1053.28L1019.89 969.28zM1092.63 1179.28L1165.38 1221.28L1165.38 1305.28L1092.63 1347.28L1019.89 1305.28L1019.89 1221.28zM1238.13 -80.72L1310.88 -38.72L1310.88 45.28L1238.13 87.28L1165.38 45.28L1165.38 -38.72zM1310.88 45.28L1383.63 87.28L1383.63 171.28L1310.88 213.28L1238.13 171.28L1238.13 87.28zM1238.13 171.28L1310.88 213.28L1310.88 297.28L1238.13 339.28L1165.38 297.28L1165.38 213.28zM1310.88 297.28L1383.63 339.28L1383.63 423.28L1310.88 465.28L1238.13 423.28L1238.13 339.28zM1310.88 549.28L1383.63 591.28L1383.63 675.28L1310.88 717.28L1238.13 675.28L1238.13 591.28zM1238.13 927.28L1310.88 969.28L1310.88 1053.28L1238.13 1095.28L1165.38 1053.28L1165.38 969.28zM1238.13 1179.28L1310.88 1221.28L1310.88 1305.28L1238.13 1347.28L1165.38 1305.28L1165.38 1221.28zM1310.88 1305.28L1383.63 1347.28L1383.63 1431.28L1310.88 1473.28L1238.13 1431.28L1238.13 1347.28zM1383.63 171.28L1456.38 213.28L1456.38 297.28L1383.63 339.28L1310.88 297.28L1310.88 213.28zM1456.38 297.28L1529.12 339.28L1529.12 423.28L1456.38 465.28L1383.63 423.28L1383.63 339.28zM1456.38 549.28L1529.12 591.28L1529.12 675.28L1456.38 717.28L1383.63 675.28L1383.63 591.28zM1383.63 675.28L1456.38 717.28L1456.38 801.28L1383.63 843.28L1310.88 801.28L1310.88 717.28zM1456.38 1053.28L1529.12 1095.28L1529.12 1179.28L1456.38 1221.28L1383.63 1179.28L1383.63 1095.28z" stroke="rgba(114, 168, 217, 1)" stroke-width="2"></path></g><defs><mask id="SvgjsMask1084"><rect width="1440" height="1440" fill="#ffffff"></rect></mask></defs></svg>